<?xml version="1.0" encoding="utf-8"?>
<!-- Generator: Adobe Illustrator 25.4.1, SVG Export Plug-In . SVG Version: 6.00 Build 0)  -->
<svg version="1.1" id="Layer_1" xmlns="http://www.w3.org/2000/svg" xmlns:xlink="http://www.w3.org/1999/xlink" x="0px" y="0px"
	 viewBox="0 0 226.8 226.8" style="enable-background:new 0 0 226.8 226.8;" xml:space="preserve">
<style type="text/css">
	.st0{fill:#FFFFFF;stroke:#FFFFFF;}
	.st1{fill:#332729;}
</style>
<g transform="translate(-4.306 -75.296)">
	<path class="st0" d="M122.4,117.4c0,0,10.6-4.1,24.7-17.6c0.6-0.6,1.3-1.2,1.9-1.9 M159.8,123.6c6,0,10.8,5.2,10.8,11.7
		c0,6.5-4.8,11.7-10.8,11.7c-6,0-10.8-5.2-10.8-11.7C149.1,128.8,153.9,123.6,159.8,123.6z M161.4,96.3c-1.9,0-3.7,0.1-4.7,0.2
		c-5,0.6-9.3,1.7-13.6,3.5c-13.8,5.9-24.1,18.3-27.3,32.9c-0.8,3.5-0.9,5.2-0.9,9.9c0,3,0.1,4.9,0.2,5.8c0.2,1.4,0.7,4.2,0.8,4.6
		c0.1,0.2,0,0.3-0.8,0.3c-1.3,0-5.4-0.4-8.8-0.8c-13-1.6-25.6-5.1-37.6-10.4c-18-8-34.5-20.4-47.3-35.5c-0.8-1-1.6-1.7-1.6-1.7
		c-0.2,0.1-1.9,3.4-2.6,5c-1.9,4.5-3.1,9.4-3.5,14.3c-0.4,4.1,0,9.8,1,14.1c2.5,11.2,9.1,21.1,18.5,27.9l1.1,0.8l-1.5-0.1
		c-6-0.4-12.4-2.1-17.8-4.8c-0.9-0.5-1.7-0.8-1.8-0.8c-0.1,0,0.1,4.2,0.3,6.2c0.8,6.4,2.9,12.6,6.2,18.1
		c6.3,10.6,16.8,18.5,28.4,21.4c2.4,0.6,2.4,0.6,1.9,0.7c-1.1,0.3-4.8,1-6.6,1.2c-3.7,0.4-9.6,0.2-12.9-0.4
		c-0.4-0.1-0.8-0.1-0.8-0.1c-0.2,0,0,0.6,0.8,2.8c4.2,10.7,12.2,19.4,22.4,24.5c5.7,2.9,11.2,4.4,17.8,4.9l2.3,0.2l-1.9,1.4
		c-12.9,9.6-28.5,15.9-44.7,17.8c-6.2,0.7-14.4,0.8-20.3,0.2c-1.1-0.1-1.9-0.2-2-0.2c0,0,0.9,0.6,2.1,1.3
		c19.6,12,41.1,18.5,64.2,19.5v0c3.1,0.1,10.2,0.1,13.7-0.2c30.2-1.8,56.4-12.3,78.3-31.3c2.6-2.3,9.6-9.2,11.8-11.8
		c0.9-1.1,2.7-3.2,3.9-4.7c11.2-14,19.5-29.9,24.7-47.3c3.9-13,5.8-26.6,5.6-39.6l-0.1-4l1.4-1.1c6.1-4.6,12.1-10.4,16.9-16.4
		c2.1-2.7,4.9-6.5,4.7-6.5c-0.1,0-0.9,0.3-1.8,0.7c-5.2,2.2-11.6,4.2-17.6,5.4c-2,0.4-6.3,1.1-6.7,1.1c-0.2,0,0.4-0.5,1.3-1.1
		c2.8-1.8,4.6-3.3,7.2-6c4-4,6.5-7.4,8.9-12.2c1.2-2.4,2.7-6.1,2.5-6.3c0,0-0.6,0.2-1.3,0.6c-7.9,4.6-17.7,8.3-26.7,10.2l-1.5,0.3
		l-1.5-1.5c-7.5-7.4-17-11.8-27.9-13C165.2,96.3,163.3,96.3,161.4,96.3z M148.4,98.6l-12.2,9.4l-12.2,9.4l-10.3-40.1l33.6,21.1"/>
	
		<image style="overflow:visible;enable-background:new    ;" width="153" height="153" xlink:href="9474DE4F.png"  transform="matrix(0.75 0 0 0.75 -572.4792 230.2519)">
	</image>
	<path class="st1" d="M-804.2,165.4h119.1v119.1h-119.1V165.4z"/>
</g>
</svg>
